HIERARCHY
ROOT Hips
{
	OFFSET -3.958830 18.904000 13.208200
	CHANNELS 6 Xposition Yposition Zposition Zrotation Yrotation Xrotation 
	JOINT LHipJoint
	{
		OFFSET 0.000000 0.000000 0.000000
		CHANNELS 3 Zrotation Yrotation Xrotation
		JOINT LeftUpLeg
		{
			OFFSET 1.800000 -1.400000 0.085000
			CHANNELS 3 Zrotation Yrotation Xrotation
			JOINT LeftLeg
			{
				OFFSET 2.215000 -6.000000 0.000000
				CHANNELS 3 Zrotation Yrotation Xrotation
				JOINT LeftFoot
				{
					OFFSET 2.500000 -6.900000 0.000000
					CHANNELS 3 Zrotation Yrotation Xrotation
					JOINT LeftToeBase
					{
						OFFSET 0.200000 -0.500000 1.950000
						CHANNELS 3 Zrotation Yrotation Xrotation
						End Site
						{
							OFFSET 0.000000 0.000000 0.000000
						}
					}
				}
			}
		}
	}
	JOINT RHipJoint
	{
		OFFSET 0.000000 0.000000 0.000000
		CHANNELS 3 Zrotation Yrotation Xrotation
		JOINT RightUpLeg
		{
			OFFSET -1.800000 -1.400000 0.085000
			CHANNELS 3 Zrotation Yrotation Xrotation
			JOINT RightLeg
			{
				OFFSET -2.215000 -6.000000 0.000000
				CHANNELS 3 Zrotation Yrotation Xrotation
				JOINT RightFoot
				{
					OFFSET -2.500000 -6.900000 0.000000
					CHANNELS 3 Zrotation Yrotation Xrotation
					JOINT RightToeBase
					{
						OFFSET -0.200000 -0.500000 1.950000
						CHANNELS 3 Zrotation Yrotation Xrotation
						End Site
						{
							OFFSET 0.000000 0.000000 0.000000
						}
					}
				}
			}
		}
	}
	JOINT LowerBack
	{
		OFFSET 0.000000 0.000000 0.000000
		CHANNELS 3 Zrotation Yrotation Xrotation
		JOINT Spine
		{
			OFFSET -0.087000 1.940000 -0.288900
			CHANNELS 3 Zrotation Yrotation Xrotation
			JOINT Spine1
			{
				OFFSET 0.000000 1.950000 0.060000
				CHANNELS 3 Zrotation Yrotation Xrotation
				JOINT Neck
				{
					OFFSET 0.000000 0.000000 0.000000
					CHANNELS 3 Zrotation Yrotation Xrotation
					JOINT Neck1
					{
						OFFSET 0.000000 1.600000 0.340000
						CHANNELS 3 Zrotation Yrotation Xrotation
						JOINT Head
						{
							OFFSET 0.000000 1.667000 -0.240000
							CHANNELS 3 Zrotation Yrotation Xrotation
							End Site
							{
								OFFSET 0.000000 0.000000 0.000000
							}
						}
					}
				}
				JOINT LeftShoulder
				{
					OFFSET 0.000000 0.000000 0.000000
					CHANNELS 3 Zrotation Yrotation Xrotation
					JOINT LeftArm
					{
						OFFSET 2.700000 1.550000 -0.730000
						CHANNELS 3 Zrotation Yrotation Xrotation
						JOINT LeftForeArm
						{
							OFFSET 5.450000 0.000000 0.000000
							CHANNELS 3 Zrotation Yrotation Xrotation
							JOINT LeftHand
							{
								OFFSET 3.450000 0.000000 0.000000
								CHANNELS 3 Zrotation Yrotation Xrotation
								JOINT LeftHandIndex1
								{
									OFFSET 0.750000 0.000000 0.000000
									CHANNELS 3 Zrotation Yrotation Xrotation
									End Site
									{
										OFFSET 0.000000 0.000000 0.000000
									}
								}
							}
						}
					}
				}
				JOINT RightShoulder
				{
					OFFSET 0.000000 0.000000 0.000000
					CHANNELS 3 Zrotation Yrotation Xrotation
					JOINT RightArm
					{
						OFFSET -2.700000 1.550000 -0.730000
						CHANNELS 3 Zrotation Yrotation Xrotation
						JOINT RightForeArm
						{
							OFFSET -5.450000 0.000000 0.000000
							CHANNELS 3 Zrotation Yrotation Xrotation
							JOINT RightHand
							{
								OFFSET -3.450000 0.000000 0.000000
								CHANNELS 3 Zrotation Yrotation Xrotation
								JOINT RightHandIndex1
								{
									OFFSET -0.750000 0.000000 0.000000
									CHANNELS 3 Zrotation Yrotation Xrotation
									End Site
									{
										OFFSET 0.000000 0.000000 0.000000
									}
								}
							}
						}
					}
				}
			}
		}
	}
}
MOTION
Frames: 8
Frame Time: 0.016667
-0.654880 15.626880 -2.794280 -2.833702 0.909694 16.393024 -15.129532 11.333637 3.527865 32.484561 -0.046652 -33.083960 1.517070 9.043495 32.059754 -0.209460 7.260135 1.986553 0.398020 -0.082480 0.305500 18.988338 -8.509209 4.034255 -22.683763 5.148426 -51.310580 -5.521222 -10.240110 55.674676 -0.987824 -8.334608 1.481320 -0.054300 0.364580 0.335600 -4.729403 -1.823049 -8.510902 27.050364 -11.239090 20.911088 -17.404569 -5.415681 -3.380764 3.976553 -14.580628 -8.421693 -31.828297 10.519164 21.496819 -7.764690 2.422360 -10.522600 -23.303947 2.548408 -2.394916 -47.134192 -2.557705 -7.062770 4.281178 -21.918223 -2.536850 -3.657141 2.846635 0.637300 0.080780 0.010810 0.329680 14.384370 4.102127 6.512714 59.424420 -8.257370 -18.239623 38.236380 44.150024 9.132488 2.168207 -1.654431 -0.222720 0.199050 -0.092520 -0.081200 
-0.651460 15.563460 -2.791110 -2.695971 0.806039 14.693708 -15.107868 11.735265 3.203099 31.290782 -0.210918 -30.842097 2.851499 8.383661 32.074931 -0.258399 7.047986 2.037541 0.402140 -0.099920 0.339570 18.939776 -8.710248 3.989936 -22.676461 5.058566 -50.121787 -6.202707 -9.999548 56.769801 -1.027890 -8.483231 1.407012 -0.059370 0.322830 0.336710 -4.677799 -2.072424 -8.373737 26.842004 -11.633700 21.753340 -16.835303 -5.706225 -2.740829 4.010903 -14.377177 -9.549351 -32.520092 11.434795 21.693897 -8.546630 3.774540 -10.242160 -22.137371 0.146550 -1.088249 -43.657034 -3.283065 -5.130593 7.858845 -16.376302 -2.454247 -3.677984 2.854626 0.668350 0.060620 0.020800 0.300930 13.646544 6.294312 7.122192 57.983315 -7.439665 -18.276726 35.618139 47.023948 9.093394 2.144794 -1.677937 -0.231280 0.167580 -0.087280 -0.115220 
-0.651050 15.543440 -2.815190 -2.469849 1.163377 12.474281 -15.062798 12.089444 2.931707 30.091485 -0.429027 -29.138177 4.822462 7.364828 31.913876 -0.319913 6.724740 2.113145 0.464310 -0.042110 0.421980 18.903940 -9.019610 3.883810 -22.406676 4.976611 -48.398060 -7.271355 -9.355293 57.541080 -1.086646 -8.520718 1.358730 -0.031980 0.232610 0.349180 -4.675245 -2.119948 -8.242273 26.234070 -12.266623 23.458537 -16.100323 -5.997525 -1.322166 3.659669 -14.098329 -10.447959 -32.513470 11.920564 22.304628 -9.317780 4.690000 -12.673340 -21.771161 -3.048904 0.437984 -38.259041 -4.067510 -3.375601 9.803363 -11.236648 -2.033716 -3.663535 2.877758 0.718230 0.009090 0.078410 0.272710 14.313306 9.148393 7.529683 55.301359 -5.910771 -18.344129 30.910737 49.577647 7.978219 2.118405 -1.669065 -0.208980 0.138910 -0.109610 -0.152540 
-0.656160 15.564400 -2.851110 -2.281704 2.030666 10.245553 -15.040966 12.394638 2.851514 29.212765 -0.704321 -28.523813 6.508532 6.564970 32.367479 -0.346024 6.599037 2.154124 0.436890 -0.069490 0.419690 18.846022 -9.312880 3.678242 -22.008632 4.781251 -45.892958 -7.703064 -8.906003 57.422899 -1.087216 -8.440039 1.389169 -0.052660 0.226300 0.346950 -4.615184 -2.231042 -8.169608 25.198804 -12.783523 25.553247 -14.711689 -6.148559 0.066890 3.312861 -13.648355 -11.813166 -32.272643 12.498344 23.672635 -9.575080 5.592680 -13.764470 -21.561031 -7.056944 2.570861 -32.326239 -3.858631 -1.922604 10.196815 -6.524543 -1.483719 -3.686808 2.837164 0.758820 -0.000050 0.100000 0.249380 15.235666 12.969957 8.295433 52.476312 -4.546069 -18.899715 24.335131 52.076780 5.893245 2.062731 -1.588520 -0.224180 0.162260 -0.081430 -0.168970 
-0.673660 15.609130 -2.879210 -2.223703 2.593552 8.318769 -15.034653 12.598639 2.899731 29.499804 -0.676193 -27.718570 6.518080 6.518150 32.324851 -0.327632 6.588173 2.137625 0.430010 -0.063500 0.430800 18.787179 -9.558515 3.436854 -21.006397 4.940019 -43.307214 -8.480582 -7.943190 56.513031 -1.075233 -8.170882 1.478512 -0.076570 0.187490 0.360310 -4.541999 -2.278498 -8.139985 23.939132 -12.857904 27.819020 -13.603765 -6.057566 1.163582 3.143354 -13.211187 -12.894463 -31.822613 12.968152 24.908238 -10.493590 6.653990 -15.772730 -20.197246 -9.665829 4.163490 -26.868197 -4.363083 -0.573576 9.841393 -1.239244 -0.920801 -3.709939 2.804299 0.794160 -0.026500 0.151540 0.231320 14.552676 15.530817 8.708497 51.742004 -2.465234 -19.339887 17.782087 53.577377 3.453906 2.030163 -1.514702 -0.203250 0.158960 -0.075590 -0.174500 
-0.694130 15.682750 -2.913240 -1.902424 3.869510 7.542360 -15.032676 12.644517 3.017582 29.321060 -0.860457 -28.335752 6.379739 6.414288 31.959073 -0.342252 6.512416 2.139321 0.404000 -0.076450 0.409370 18.755912 -9.711247 3.253773 -21.007048 4.676100 -41.408871 -7.779998 -7.958222 55.055046 -1.013431 -7.946747 1.535429 -0.090140 0.190640 0.384730 -4.509941 -2.259242 -8.138093 22.886845 -12.295405 28.499978 -12.355029 -5.670184 2.032974 2.521323 -12.886625 -13.397615 -31.414416 13.577893 25.970917 -10.486580 7.517440 -15.661890 -19.699259 -11.462359 5.006851 -21.517456 -5.336082 -0.006206 10.610104 1.445290 -0.757632 -3.780804 2.802865 0.783890 -0.008250 0.155420 0.205140 15.407461 17.206649 8.943024 50.058678 -1.027585 -19.310216 11.134505 54.864250 0.891801 1.979864 -1.466853 -0.187820 0.140070 -0.041630 -0.174190 
-0.709580 15.795320 -2.939790 -1.818468 4.630217 6.959337 -15.024530 12.747261 3.081726 29.158837 -0.913193 -28.081989 5.697724 6.377019 30.355561 -0.424377 6.355103 2.197598 0.371510 -0.140660 0.411740 18.713113 -9.876430 3.091990 -21.000408 4.607868 -39.196905 -6.106617 -8.180575 52.609519 -0.907255 -7.562178 1.651637 -0.104660 0.211960 0.371530 -4.469950 -2.260185 -8.100770 21.950903 -11.661362 29.173995 -10.901404 -5.288134 2.846054 1.869453 -12.784766 -14.069331 -31.634011 14.228744 26.673774 -9.909450 8.005500 -15.531320 -18.588013 -13.085676 5.990323 -16.698502 -5.535734 0.398033 10.092784 2.875995 -0.739777 -3.811974 2.748555 0.823090 -0.003510 0.134610 0.179970 15.790455 18.978643 9.223625 48.444589 0.954460 -19.062463 6.512781 56.320862 -1.047434 1.930024 -1.404312 -0.237800 0.167790 -0.003910 -0.205810 
-0.714430 15.937940 -2.966300 -1.541614 5.683679 7.006789 -15.047681 12.830338 3.280022 29.058912 -1.012287 -28.510244 4.194568 6.570492 28.579115 -0.478093 6.215408 2.242533 0.341000 -0.189310 0.425720 18.641459 -10.002053 2.869185 -20.942402 4.367033 -36.727969 -4.573804 -8.034645 48.665551 -0.757251 -6.924350 1.848283 -0.124860 0.215680 0.372530 -4.355203 -2.375953 -8.092602 20.638261 -10.684209 29.367589 -8.971741 -4.819066 3.575862 1.384551 -12.588308 -14.368121 -31.252435 14.622063 27.787342 -10.752260 9.044200 -15.446800 -17.508340 -14.038329 6.621196 -12.060366 -5.614474 0.754738 8.287598 3.858549 -0.766066 -3.839096 2.701236 0.842150 0.007290 0.129230 0.151550 15.757051 20.251138 9.151022 46.690283 3.828462 -17.774896 2.254914 54.347111 -2.624091 1.924184 -1.327460 -0.263060 0.171630 0.020900 -0.231880 
